<svg width="46" height="47" viewBox="0 0 46 47" fill="none" xmlns="http://www.w3.org/2000/svg">
<path fill-rule="evenodd" clip-rule="evenodd" d="M20.542 37.2225C21.3017 38.0688 22.2771 38.5337 23.2891 38.5337H23.2905C24.3069 38.5337 25.2867 38.0687 26.0479 37.221C26.4556 36.7707 27.1508 36.7341 27.6011 37.1403C28.0528 37.5466 28.0895 38.2433 27.6832 38.6935C26.4981 40.0091 24.9391 40.7337 23.2905 40.7337H23.2876C21.6435 40.7322 20.0873 40.0077 18.9067 38.6921C18.5004 38.2418 18.5371 37.5451 18.9888 37.1403C19.4405 36.7326 20.1357 36.7693 20.542 37.2225ZM23.3621 9.20035C29.8814 9.20035 34.2609 14.2779 34.2609 19.0197C34.2609 21.4587 34.8813 22.4927 35.5398 23.5898C36.191 24.6722 36.9288 25.9013 36.9288 28.2245C36.4169 34.1601 30.2202 34.6441 23.3621 34.6441C16.504 34.6441 10.3058 34.1601 9.79982 28.3183C9.79544 25.9013 10.5332 24.6722 11.1844 23.5898L11.4143 23.2028C11.9803 22.23 12.4633 21.1718 12.4633 19.0197C12.4633 14.2779 16.8428 9.20035 23.3621 9.20035ZM23.3621 11.4003C18.2361 11.4003 14.6633 15.4161 14.6633 19.0197C14.6633 22.0689 13.817 23.4783 13.069 24.7221C12.4692 25.7209 11.9954 26.5099 11.9954 28.2245C12.2404 30.9906 14.0664 32.4441 23.3621 32.4441C32.6065 32.4441 34.4897 30.9261 34.7332 28.1291C34.7288 26.5099 34.255 25.7209 33.6552 24.7221C32.9072 23.4783 32.0609 22.0689 32.0609 19.0197C32.0609 15.4161 28.4881 11.4003 23.3621 11.4003Z" fill="#212121"/>
<rect x="0.5" y="1" width="45" height="45" rx="6.5" stroke="#F4F3F6"/>
</svg>
