<svg width="19" height="24" viewBox="0 0 19 24" fill="none" xmlns="http://www.w3.org/2000/svg">
<path d="M14 24H4.00498C3.4267 23.9997 2.85531 23.8744 2.32993 23.6328C1.80454 23.3912 1.33757 23.0389 0.960983 22.6C0.589694 22.1707 0.315534 21.6663 0.157264 21.1212C-0.00100505 20.5762 -0.039647 20.0034 0.0439832 19.442C0.580895 16.5175 2.14095 13.8795 4.44498 12C2.14092 10.1199 0.581189 7.48109 0.0449833 4.556C-0.0384831 3.99501 0.000147983 3.42262 0.158237 2.87794C0.316326 2.33326 0.590146 1.82913 0.960983 1.4C1.33757 0.961145 1.80454 0.608844 2.32993 0.367209C2.85531 0.125575 3.4267 0.000313365 4.00498 -4.76837e-07L14 -4.76837e-07C14.5782 0.000511666 15.1496 0.125862 15.6749 0.367483C16.2003 0.609104 16.6673 0.961299 17.044 1.4C17.4149 1.82895 17.6889 2.33285 17.8473 2.87732C18.0057 3.42179 18.0448 3.99403 17.962 4.555C17.4203 7.48095 15.8571 10.1194 13.551 12C15.8557 13.8822 17.4172 16.5217 17.957 19.448C18.0399 20.0091 18.0008 20.5815 17.8424 21.1262C17.684 21.6708 17.4099 22.1749 17.039 22.604C16.6624 23.0413 16.1961 23.3924 15.6717 23.6333C15.1473 23.8742 14.5771 23.9993 14 24ZM14 2H4.00498C3.71492 1.99982 3.42823 2.06227 3.16452 2.18308C2.9008 2.30389 2.66628 2.48022 2.47698 2.7C2.29214 2.91043 2.15554 3.15874 2.07677 3.42753C1.998 3.69632 1.97896 3.97908 2.02098 4.256C2.39698 6.756 3.94498 9.096 6.62098 11.213C6.73923 11.3066 6.83476 11.4258 6.90043 11.5615C6.96611 11.6973 7.00022 11.8462 7.00022 11.997C7.00022 12.1478 6.96611 12.2967 6.90043 12.4325C6.83476 12.5682 6.73923 12.6874 6.62098 12.781C3.94498 14.9 2.39998 17.242 2.02098 19.741C1.9785 20.0184 1.99732 20.3017 2.0761 20.5711C2.15488 20.8404 2.29172 21.0892 2.47698 21.3C2.66628 21.5198 2.9008 21.6961 3.16452 21.8169C3.42823 21.9377 3.71492 22.0002 4.00498 22H14C14.2901 22.0002 14.5768 21.9378 14.8405 21.817C15.1042 21.6962 15.3387 21.5198 15.528 21.3C15.7128 21.0899 15.8494 20.842 15.9281 20.5735C16.0069 20.3051 16.026 20.0226 15.984 19.746C15.611 17.259 14.064 14.917 11.384 12.784C11.2665 12.6903 11.1716 12.5714 11.1064 12.436C11.0411 12.3006 11.0073 12.1523 11.0073 12.002C11.0073 11.8517 11.0411 11.7034 11.1064 11.568C11.1716 11.4326 11.2665 11.3137 11.384 11.22C14.065 9.087 15.612 6.745 15.984 4.257C16.0258 3.97955 16.0062 3.69629 15.9266 3.42725C15.8469 3.1582 15.7091 2.90994 15.523 2.7C15.3343 2.4808 15.1006 2.30482 14.8378 2.18403C14.575 2.06324 14.2892 2.00047 14 2ZM12.681 20H5.31798C5.15436 19.9999 4.99326 19.9597 4.8488 19.8829C4.70434 19.806 4.58095 19.6949 4.48944 19.5593C4.39793 19.4236 4.3411 19.2676 4.32393 19.1049C4.30676 18.9422 4.32979 18.7777 4.39098 18.626C5.17406 16.9351 6.36719 15.4666 7.86198 14.354L8.37998 13.942C8.55694 13.8012 8.77637 13.7246 9.00248 13.7246C9.22859 13.7246 9.44803 13.8012 9.62498 13.942L10.134 14.348C11.6267 15.465 12.8198 16.934 13.607 18.624C13.6686 18.7758 13.6919 18.9403 13.675 19.1033C13.6581 19.2662 13.6014 19.4224 13.51 19.5583C13.4185 19.6942 13.2951 19.8055 13.1506 19.8826C13.006 19.9596 12.8448 19.9999 12.681 20ZM7.03398 18H10.962C10.3914 17.2563 9.73258 16.5847 8.99998 16C8.26414 16.5824 7.60373 17.2543 7.03398 18Z" fill="#969696"/>
</svg>
