<svg width="30" height="30" viewBox="0 0 30 30" fill="none" xmlns="http://www.w3.org/2000/svg">
<g clip-path="url(#clip0_182_847)">
<path d="M28.0814 12.3325C25.4076 12.3325 22.9289 11.4775 20.9064 10.025V20.5063C20.9064 25.7413 16.6476 29.9988 11.4139 29.9988C9.39139 29.9988 7.51514 29.3613 5.97389 28.2788C3.52639 26.56 1.92139 23.7175 1.92139 20.5063C1.92139 15.2713 6.18014 11.0125 11.4151 11.0125C11.8501 11.0125 12.2751 11.0488 12.6939 11.105V12.3263V16.37C12.2889 16.2438 11.8614 16.17 11.4151 16.17C9.02514 16.17 7.08014 18.115 7.08014 20.5063C7.08014 22.1713 8.02514 23.6175 9.40514 24.3438C10.0064 24.66 10.6901 24.8413 11.4164 24.8413C13.7514 24.8413 15.6564 22.9838 15.7439 20.6688L15.7476 0H20.9051C20.9051 0.4475 20.9489 0.88375 21.0264 1.30875C21.3901 3.27375 22.5564 4.96 24.1726 6.01375C25.2976 6.7475 26.6401 7.17625 28.0801 7.17625L28.0814 12.3325Z" fill="#6844CE"/>
</g>
<defs>
<clipPath id="clip0_182_847">
<rect width="30" height="30" fill="white"/>
</clipPath>
</defs>
</svg>
