<svg width="30" height="30" viewBox="0 0 30 30" fill="none" xmlns="http://www.w3.org/2000/svg">
<g clip-path="url(#clip0_182_838)">
<path d="M21.0435 0.576927H8.95696C3.70696 0.576927 0.577148 3.70673 0.577148 8.95673V21.0289C0.577148 26.2933 3.70696 29.4231 8.95696 29.4231H21.0291C26.2791 29.4231 29.4089 26.2933 29.4089 21.0433V8.95673C29.4233 3.70673 26.2935 0.576927 21.0435 0.576927ZM15.0002 20.5962C11.9137 20.5962 9.40407 18.0865 9.40407 15C9.40407 11.9135 11.9137 9.40385 15.0002 9.40385C18.0868 9.40385 20.5964 11.9135 20.5964 15C20.5964 18.0865 18.0868 20.5962 15.0002 20.5962ZM23.5387 7.61539C23.4666 7.78847 23.3656 7.94712 23.2358 8.09135C23.0916 8.22116 22.9329 8.32212 22.7598 8.39424C22.5868 8.46635 22.3993 8.50962 22.2118 8.50962C21.8223 8.50962 21.4618 8.36539 21.1877 8.09135C21.0579 7.94712 20.957 7.78847 20.8848 7.61539C20.8127 7.44231 20.7695 7.25481 20.7695 7.06731C20.7695 6.87981 20.8127 6.69231 20.8848 6.51923C20.957 6.33173 21.0579 6.1875 21.1877 6.04327C21.5195 5.71154 22.0243 5.55289 22.4858 5.65385C22.5868 5.66827 22.6733 5.69712 22.7598 5.74039C22.8464 5.76923 22.9329 5.8125 23.0195 5.8702C23.0916 5.91347 23.1637 5.98558 23.2358 6.04327C23.3656 6.1875 23.4666 6.33173 23.5387 6.51923C23.6108 6.69231 23.6541 6.87981 23.6541 7.06731C23.6541 7.25481 23.6108 7.44231 23.5387 7.61539Z" fill="#6844CE"/>
</g>
<defs>
<clipPath id="clip0_182_838">
<rect width="30" height="30" fill="white"/>
</clipPath>
</defs>
</svg>
