<svg width="13" height="18" viewBox="0 0 13 18" fill="none" xmlns="http://www.w3.org/2000/svg">
<path d="M6.40395 5.53261C6.51645 5.53261 6.61957 5.54927 6.71332 5.58261C6.80707 5.61594 6.90082 5.67427 6.99457 5.75761L12.5633 10.7076C12.7133 10.8409 12.7836 11.0201 12.7743 11.2451C12.7649 11.4701 12.6852 11.6493 12.5352 11.7826C12.3477 11.9493 12.1461 12.0201 11.9305 11.9951C11.7149 11.9701 11.5227 11.8909 11.3539 11.7576L6.40395 7.35761L1.45395 11.7576C1.30395 11.8909 1.10238 11.9659 0.849257 11.9826C0.596133 11.9993 0.39457 11.9243 0.24457 11.7576C0.0570698 11.6243 -0.0226173 11.4493 0.00550747 11.2326C0.0336332 11.0159 0.122696 10.8326 0.272696 10.6826L5.81332 5.75761C5.90707 5.67427 6.00082 5.61594 6.09457 5.58261C6.18832 5.54927 6.29145 5.53261 6.40395 5.53261Z" fill="#F8FCFF"/>
</svg>
