<svg width="24" height="24" viewBox="0 0 24 24" fill="none" xmlns="http://www.w3.org/2000/svg">
<rect width="24" height="24" rx="12" fill="#F9BD6F"/>
<path d="M15 17.5H7V16.4065C7 15.2348 7.81383 14.2202 8.95767 13.966L9.37302 13.8737C10.4446 13.6356 11.5554 13.6356 12.627 13.8737L13.0423 13.966C14.1862 14.2202 15 15.2348 15 16.4065V17.5ZM13.5 9C13.5 10.3807 12.3807 11.5 11 11.5C9.61929 11.5 8.5 10.3807 8.5 9C8.5 7.61929 9.61929 6.5 11 6.5C12.3807 6.5 13.5 7.61929 13.5 9ZM17 11C17 11.2761 16.7761 11.5 16.5 11.5C16.2239 11.5 16 11.2761 16 11C16 10.7239 16.2239 10.5 16.5 10.5C16.7761 10.5 17 10.7239 17 11Z" stroke="white"/>
</svg>
