<svg width="56" height="56" viewBox="0 0 56 56" fill="none" xmlns="http://www.w3.org/2000/svg">
<circle cx="28" cy="28" r="28" fill="white"/>
<path d="M27.627 27.4902V33.2227C27.3926 33.4896 27.0345 33.776 26.5527 34.082C26.0775 34.388 25.4688 34.6517 24.7266 34.873C23.9844 35.0879 23.099 35.1953 22.0703 35.1953C21.1393 35.1953 20.293 35.0456 19.5312 34.7461C18.7695 34.4401 18.1152 33.9941 17.5684 33.4082C17.0215 32.8158 16.5983 32.0931 16.2988 31.2402C16.0059 30.3874 15.8594 29.4108 15.8594 28.3105V27.4707C15.8594 26.3704 16.0059 25.3939 16.2988 24.541C16.5918 23.6882 17.0052 22.9688 17.5391 22.3828C18.0729 21.7904 18.7077 21.3411 19.4434 21.0352C20.179 20.7292 20.9928 20.5762 21.8848 20.5762C23.1543 20.5762 24.1927 20.7812 25 21.1914C25.8073 21.5951 26.4193 22.1549 26.8359 22.8711C27.2591 23.5872 27.5195 24.4108 27.6172 25.3418H24.5508C24.4857 24.8665 24.3555 24.4564 24.1602 24.1113C23.9714 23.7663 23.7012 23.5026 23.3496 23.3203C22.998 23.1315 22.5423 23.0371 21.9824 23.0371C21.5332 23.0371 21.1263 23.1315 20.7617 23.3203C20.4036 23.5026 20.1009 23.7793 19.8535 24.1504C19.6061 24.5215 19.4173 24.9837 19.2871 25.5371C19.1569 26.084 19.0918 26.722 19.0918 27.4512V28.3105C19.0918 29.0397 19.1569 29.681 19.2871 30.2344C19.4238 30.7878 19.6224 31.25 19.8828 31.6211C20.1432 31.9857 20.472 32.2624 20.8691 32.4512C21.2728 32.64 21.7415 32.7344 22.2754 32.7344C22.6921 32.7344 23.0436 32.7018 23.3301 32.6367C23.6165 32.5651 23.8509 32.4772 24.0332 32.373C24.2155 32.2624 24.3522 32.1615 24.4434 32.0703V29.707H21.9141V27.4902H27.627Z" fill="#062D49"/>
<path d="M39.3848 32.627V35H29.5605V32.9883L34.1504 28.125C34.5801 27.6302 34.9219 27.194 35.1758 26.8164C35.4362 26.4388 35.625 26.097 35.7422 25.791C35.8594 25.4785 35.918 25.1921 35.918 24.9316C35.918 24.5085 35.8496 24.1504 35.7129 23.8574C35.5827 23.5645 35.3906 23.3398 35.1367 23.1836C34.8828 23.0273 34.5736 22.9492 34.209 22.9492C33.8184 22.9492 33.4831 23.0501 33.2031 23.252C32.9232 23.4538 32.7083 23.7337 32.5586 24.0918C32.4089 24.4434 32.334 24.8438 32.334 25.293H29.2676C29.2676 24.4271 29.4759 23.6393 29.8926 22.9297C30.3092 22.2135 30.8919 21.6439 31.6406 21.2207C32.3893 20.791 33.265 20.5762 34.2676 20.5762C35.2962 20.5762 36.1589 20.7389 36.8555 21.0645C37.5521 21.39 38.0794 21.8555 38.4375 22.4609C38.7956 23.0664 38.9746 23.7956 38.9746 24.6484C38.9746 25.1302 38.8965 25.5957 38.7402 26.0449C38.5905 26.4941 38.3724 26.9401 38.0859 27.3828C37.7995 27.8255 37.4544 28.278 37.0508 28.7402C36.6471 29.196 36.1914 29.6777 35.6836 30.1855L33.5352 32.627H39.3848Z" fill="#2AAF7F"/>
</svg>
