<svg width="24" height="25" viewBox="0 0 24 25" fill="none" xmlns="http://www.w3.org/2000/svg">
<mask id="mask0_228_1075" style="mask-type:luminance" maskUnits="userSpaceOnUse" x="0" y="0" width="24" height="25">
<path d="M0 0.640137H24V24.5716H0V0.640137Z" fill="white"/>
</mask>
<g mask="url(#mask0_228_1075)">
<path fill-rule="evenodd" clip-rule="evenodd" d="M12 24.5716C5.38318 24.5716 0 19.2034 0 12.6058C0 6.00831 5.38318 0.640137 12 0.640137C18.6168 0.640137 24 6.00831 24 12.6058C24 19.2034 18.6168 24.5716 12 24.5716ZM16.3374 17.2147C16.411 17.2147 16.4838 17.1861 16.5388 17.1318C16.6253 17.0454 16.6467 16.9132 16.5924 16.8032L15.2145 14.0552L18.7618 12.8759C18.8783 12.8366 18.9568 12.728 18.9568 12.6058C18.9568 12.483 18.8783 12.3744 18.7618 12.3358L15.2145 11.1565L16.5924 8.40774C16.6474 8.29845 16.6253 8.1663 16.5388 8.07987C16.4524 7.99343 16.3195 7.972 16.2095 8.02701L13.4537 9.39994L12.2707 5.86331C12.2314 5.74758 12.1229 5.66901 12 5.66901C11.8771 5.66901 11.7686 5.74758 11.7293 5.86331L10.5463 9.39994L7.79046 8.02701C7.68046 7.972 7.54831 7.99343 7.46116 8.07987C7.37472 8.1663 7.35258 8.29845 7.40758 8.40774L8.78552 11.1565L5.23817 12.3358C5.12173 12.3744 5.04316 12.483 5.04316 12.6058C5.04316 12.728 5.12173 12.8366 5.23817 12.8759L8.78552 14.0552L7.40758 16.8032C7.35258 16.9125 7.37472 17.0454 7.46116 17.1318C7.51616 17.1861 7.58902 17.2147 7.6626 17.2147C7.70617 17.2147 7.74975 17.2054 7.79046 17.1847L10.5463 15.811L11.7293 19.3477C11.7686 19.4641 11.8771 19.5427 12 19.5427C12.1229 19.5427 12.2314 19.4641 12.2707 19.3477L13.4537 15.811L16.2095 17.1847C16.2503 17.2054 16.2938 17.2147 16.3374 17.2147ZM13.0143 15.3246L13.0179 15.316L13.3979 14.1795C13.4258 14.0945 13.4929 14.0281 13.578 13.9995L17.7696 12.6058L14.728 11.5944L14.7259 11.5936L14.718 11.5908L13.578 11.2122C13.4929 11.1836 13.4258 11.1172 13.3979 11.0322L13.0186 9.89783C13.0172 9.89355 13.0151 9.88855 13.0136 9.88354L12 6.85265L10.9849 9.88712L10.9821 9.89569L10.6021 11.0322C10.5735 11.1172 10.5071 11.1836 10.422 11.2122L9.28127 11.5915L9.2727 11.5944L6.23037 12.6058L10.422 13.9995C10.5071 14.0281 10.5735 14.0945 10.6021 14.1795L12 18.359L13.0143 15.3246ZM13.6358 15.2667L15.6995 16.2946L14.668 14.2367L13.8937 14.4945L13.6358 15.2667ZM9.33198 14.2367L8.30049 16.2946L10.3642 15.266L10.1056 14.4945L9.33198 14.2367ZM10.3642 9.94569L8.30049 8.91706L9.33198 10.9743L10.1056 10.7172L10.3642 9.94569ZM14.668 10.9743L15.6995 8.91706L13.6358 9.94569L13.8937 10.7172L14.668 10.9743ZM12 14.1909C12.8765 14.1909 13.5894 13.4795 13.5894 12.6058C13.5894 11.7315 12.8765 11.0208 12 11.0208C11.1235 11.0208 10.4106 11.7315 10.4106 12.6058C10.4106 13.4795 11.1235 14.1909 12 14.1909ZM12 11.5901C11.4378 11.5901 10.9807 12.0458 10.9807 12.6058C10.9807 13.1659 11.4378 13.6223 12 13.6223C12.5622 13.6223 13.0193 13.1659 13.0193 12.6058C13.0193 12.0458 12.5622 11.5901 12 11.5901ZM12 4.55608C11.8421 4.55608 11.715 4.42893 11.715 4.27178V3.62317C11.1271 3.64174 10.5528 3.71603 9.99917 3.84247L10.1713 4.48537C10.2128 4.6368 10.122 4.79253 9.96988 4.83324C9.94488 4.84039 9.92059 4.84324 9.89559 4.84324C9.76987 4.84324 9.65486 4.75967 9.62057 4.63252L9.44699 3.98605C8.88624 4.15177 8.34764 4.37036 7.83761 4.63609L8.18549 5.23684C8.26406 5.37256 8.21763 5.54686 8.0812 5.62543C8.03619 5.65115 7.9869 5.66329 7.93833 5.66329C7.83975 5.66329 7.74403 5.61258 7.69117 5.52114L7.34044 4.91539C6.84041 5.21755 6.37252 5.56686 5.9425 5.95688L6.46181 6.47548C6.57325 6.58621 6.57325 6.76622 6.46181 6.87765C6.4061 6.93265 6.33323 6.96051 6.26037 6.96051C6.1868 6.96051 6.11394 6.93265 6.05822 6.87765L5.53247 6.35333C5.12459 6.77264 4.75671 7.23196 4.43669 7.72342L5.11888 8.1163C5.25531 8.19487 5.30174 8.36917 5.22317 8.50489C5.17031 8.59632 5.07459 8.64704 4.97601 8.64704C4.92744 8.64704 4.87815 8.6349 4.83315 8.60918L4.14096 8.21059C3.85237 8.72133 3.61236 9.26279 3.42806 9.82926L4.2474 10.0486C4.39955 10.0886 4.48955 10.245 4.44884 10.3964C4.41455 10.5236 4.29954 10.6079 4.17382 10.6079C4.14953 10.6079 4.12453 10.6043 4.09953 10.5979L3.26805 10.3757C3.12233 10.9436 3.03018 11.5336 2.99875 12.1394H3.90666C4.06453 12.1394 4.19239 12.2665 4.19239 12.4237C4.19239 12.5808 4.06453 12.7087 3.90666 12.7087H2.98804C2.99518 13.3209 3.06375 13.9195 3.18876 14.4974C3.19662 14.4945 3.20448 14.4917 3.21233 14.4895L4.12096 14.2467C4.27311 14.2059 4.42955 14.2959 4.47027 14.4481C4.51098 14.5995 4.42026 14.756 4.26883 14.796L3.3602 15.0389C3.34806 15.0424 3.33663 15.0446 3.32448 15.046C3.49235 15.6389 3.72022 16.2061 4.00024 16.7418C4.0181 16.7247 4.03738 16.709 4.06024 16.6961L4.87458 16.2275C5.01101 16.1489 5.18531 16.1953 5.26389 16.3318C5.34318 16.4675 5.29603 16.6411 5.15959 16.7204L4.34526 17.189C4.32097 17.2033 4.29454 17.2133 4.26811 17.2197C4.59027 17.7533 4.96601 18.2512 5.38818 18.7062C5.40175 18.6705 5.42318 18.6376 5.45175 18.6091L6.11679 17.9455C6.22823 17.8347 6.40895 17.8347 6.52039 17.9455C6.63182 18.0569 6.63182 18.2369 6.52039 18.3483L5.85535 19.0112C5.82463 19.0412 5.78963 19.0634 5.75249 19.0769C6.20966 19.5155 6.71254 19.907 7.254 20.2427C7.25329 20.1934 7.26543 20.1434 7.29186 20.0977L7.76261 19.2855C7.84118 19.1491 8.01548 19.1027 8.15191 19.1812C8.28835 19.2598 8.3355 19.4334 8.25692 19.5698L7.78618 20.382C7.75903 20.4285 7.72046 20.4649 7.67617 20.4892C8.23835 20.7971 8.83696 21.0464 9.46342 21.2299C9.44485 21.1771 9.44056 21.1185 9.45628 21.0599L9.69986 20.1542C9.74058 20.0027 9.89702 19.9127 10.0492 19.9534C10.2013 19.9941 10.292 20.1499 10.2513 20.302L10.0077 21.2071C9.99202 21.2649 9.95988 21.3142 9.91702 21.3499C10.5378 21.4971 11.1835 21.58 11.8457 21.5907C11.815 21.5457 11.7971 21.4907 11.7971 21.4314V20.4935C11.7971 20.337 11.9243 20.2092 12.0821 20.2092C12.2393 20.2092 12.3672 20.337 12.3672 20.4935V21.4314C12.3672 21.4885 12.3507 21.5421 12.3214 21.5864C12.9772 21.5635 13.6151 21.4707 14.2287 21.3149C14.1937 21.2799 14.1673 21.2364 14.1537 21.1864L13.9101 20.2806C13.8701 20.1284 13.9601 19.9727 14.1123 19.932C14.2644 19.8913 14.4209 19.9813 14.4616 20.1327L14.7052 21.0392C14.7173 21.0864 14.7173 21.1342 14.7066 21.1785C15.3145 20.9871 15.8952 20.7335 16.4403 20.4242C16.411 20.402 16.386 20.3742 16.3667 20.3413L15.8967 19.5291C15.8181 19.3927 15.8645 19.2184 16.001 19.1405C16.1374 19.0612 16.3117 19.1084 16.3903 19.2441L16.861 20.0563C16.8774 20.0856 16.8889 20.117 16.8946 20.1484C17.4139 19.8127 17.8961 19.4248 18.3339 18.9927C18.3168 18.9819 18.3004 18.9684 18.2854 18.9534L17.6203 18.2905C17.5089 18.179 17.5089 17.999 17.6203 17.8876C17.7318 17.7769 17.9125 17.7769 18.0239 17.8876L18.6883 18.5512C18.7004 18.5626 18.7104 18.5755 18.7197 18.5883C19.1233 18.1383 19.4812 17.6476 19.7883 17.124C19.7847 17.1218 19.7812 17.1197 19.7776 17.1183L18.9633 16.6489C18.8268 16.5704 18.7804 16.3968 18.859 16.2604C18.9376 16.1246 19.1119 16.0775 19.249 16.1568L20.0605 16.6239C20.3276 16.0932 20.5434 15.5325 20.7019 14.9488L19.8348 14.7174C19.6826 14.6767 19.5926 14.5202 19.6333 14.3688C19.674 14.2174 19.8298 14.1274 19.9826 14.1681L20.8334 14.3952C20.9498 13.8231 21.0113 13.2316 21.0127 12.6259H20.1755C20.0176 12.6259 19.8898 12.4994 19.8898 12.3415C19.8898 12.1844 20.0176 12.058 20.1755 12.058H20.9955C20.9591 11.4601 20.8648 10.8779 20.7162 10.3171L19.9612 10.5186C19.9369 10.525 19.9119 10.5286 19.8876 10.5286C19.7612 10.5286 19.6462 10.445 19.6119 10.3171C19.5712 10.1657 19.6619 10.01 19.814 9.96926L20.5534 9.77139C20.3669 9.21279 20.1262 8.67847 19.839 8.17487L19.2076 8.53846C19.1626 8.56418 19.114 8.57632 19.0654 8.57632C18.9668 8.57632 18.8704 8.52561 18.8175 8.43417C18.739 8.29845 18.7861 8.12415 18.9226 8.04558L19.5412 7.68913C19.2211 7.20338 18.8561 6.7505 18.4504 6.33548L17.9654 6.81979C17.9096 6.87479 17.8368 6.90265 17.7639 6.90265C17.6911 6.90265 17.6175 6.87479 17.5618 6.81979C17.4503 6.70836 17.4503 6.52834 17.5618 6.41691L18.0396 5.94117C17.6118 5.55472 17.1467 5.20898 16.6503 4.90968L16.3195 5.48042C16.2667 5.57114 16.171 5.62258 16.0724 5.62258C16.0238 5.62258 15.9745 5.61043 15.9295 5.58472C15.7931 5.50543 15.7467 5.33184 15.8252 5.19612L16.1524 4.63109C15.6445 4.36679 15.1088 4.15035 14.5502 3.98534L14.3823 4.61109C14.348 4.73824 14.233 4.82253 14.1066 4.82253C14.0823 4.82253 14.0573 4.81896 14.033 4.81253C13.8808 4.77181 13.7901 4.61609 13.8315 4.46394L13.9987 3.84176C13.4444 3.71603 12.8722 3.64174 12.2857 3.62317V4.27178C12.2857 4.42893 12.1572 4.55608 12 4.55608ZM11.9921 3.04957C6.71111 3.05385 2.41657 7.33911 2.41657 12.6058C2.41657 17.8747 6.71611 22.1621 12 22.1621C17.2846 22.1621 21.5834 17.8747 21.5834 12.6058C21.5834 8.18416 18.5561 4.45465 14.4594 3.36887C14.448 3.36458 14.4359 3.3603 14.4237 3.35744C14.4116 3.35387 14.3994 3.35173 14.3873 3.3503C13.6265 3.15457 12.8286 3.05028 12.0079 3.04957H11.9921Z" fill="#626262"/>
</g>
</svg>
