<svg width="24" height="25" viewBox="0 0 24 25" fill="none" xmlns="http://www.w3.org/2000/svg">
<mask id="mask0_817_255" style="mask-type:luminance" maskUnits="userSpaceOnUse" x="0" y="0" width="24" height="25">
<path d="M0 0.359985H24V24.36H0V0.359985Z" fill="white"/>
</mask>
<g mask="url(#mask0_817_255)">
<path d="M20.4611 11.1805L18.3529 12.4981V11.9128C18.3529 11.3122 18.1767 10.7308 17.856 10.2358C19.0257 9.20031 19.7648 7.68856 19.7648 6.00708C19.7648 2.89326 17.2315 0.359985 14.1177 0.359985C11.0039 0.359985 8.47064 2.89326 8.47064 6.00708C8.47064 7.03504 8.74664 7.99953 9.22875 8.83062H3.08221C1.38283 8.83062 0 10.2132 0 11.9128C0 12.4028 0 20.9019 0 21.2775C0 22.9772 1.38283 24.36 3.08221 24.36H15.2707C16.9701 24.36 18.3529 22.9772 18.3529 21.2775V20.6925L20.4611 22.0099C22.0031 22.9738 24 21.8673 24 20.0487V13.1419C24 11.3236 22.0034 10.2168 20.4611 11.1805ZM16.9413 21.2775C16.9413 22.1989 16.1918 22.9484 15.2707 22.9484H3.08221C2.16107 22.9484 1.41163 22.1989 1.41163 21.2775V20.8306H6.81208C8.50503 20.8306 9.88227 19.4531 9.88227 17.7602V15.4305C9.88227 13.7375 8.50503 12.36 6.81208 12.36H1.41163V11.9128C1.41163 10.9917 2.16107 10.2423 3.08221 10.2423H10.3867C12.1499 11.7973 14.6549 12.0789 16.6899 11.0334C16.8521 11.2954 16.9413 11.5994 16.9413 11.9128C16.9413 12.8152 16.9413 20.07 16.9413 21.2775ZM2.82355 16.5952C2.82355 16.2053 3.13954 15.8893 3.52936 15.8893H6.35291C6.74273 15.8893 7.05872 16.2053 7.05872 16.5952C7.05872 16.985 6.74273 17.3013 6.35291 17.3013H3.52936C3.13954 17.3013 2.82355 16.985 2.82355 16.5952ZM16.2352 6.71289H14.8235V8.12481C14.8235 8.51463 14.5076 8.83062 14.1177 8.83062C13.7279 8.83062 13.4116 8.51463 13.4116 8.12481V6.71289H12C11.6102 6.71289 11.2942 6.3969 11.2942 6.00708C11.2942 5.61726 11.6102 5.30126 12 5.30126H13.4116V3.88935C13.4116 3.49953 13.7279 3.18353 14.1177 3.18353C14.5076 3.18353 14.8235 3.49953 14.8235 3.88935V5.30126H16.2352C16.625 5.30126 16.9413 5.61726 16.9413 6.00708C16.9413 6.3969 16.625 6.71289 16.2352 6.71289ZM22.5884 20.0487C22.5884 20.7571 21.8104 21.1883 21.2095 20.813L18.3529 19.0275V14.1628L21.2095 12.3776C21.8101 12.0023 22.5884 12.4333 22.5884 13.1419V20.0487Z" fill="#969696"/>
</g>
</svg>
