<svg width="24" height="23" viewBox="0 0 24 23" fill="none" xmlns="http://www.w3.org/2000/svg">
<path d="M11.5719 10.7306C11.5719 10.6737 11.5607 10.6194 11.5394 10.5669C11.5175 10.5137 11.4863 10.4675 11.4463 10.4275C11.4063 10.3869 11.36 10.3562 11.3075 10.3344C11.255 10.3125 11.2007 10.3019 11.1438 10.3012H6.86317C6.8063 10.3012 6.75192 10.2906 6.69942 10.2687C6.64692 10.2469 6.60067 10.2162 6.56067 10.1756C6.52005 10.1356 6.48942 10.0894 6.46755 10.0369C6.44567 9.98373 6.43505 9.92936 6.43505 9.87248V4.29248H5.5788V11.16H12C11.9432 11.16 11.8888 11.1494 11.8363 11.1275C11.7838 11.1056 11.7375 11.0744 11.6975 11.0344C11.6569 10.9937 11.6263 10.9475 11.6044 10.895C11.5825 10.8425 11.5719 10.7875 11.5719 10.7306Z" fill="#626262"/>
<path d="M11.5719 9.52172V3.86297C11.5719 3.80609 11.5606 3.75109 11.5394 3.69859C11.5175 3.64609 11.4863 3.59984 11.4463 3.55984C11.4063 3.51922 11.36 3.48859 11.3075 3.46672C11.255 3.44484 11.2006 3.43359 11.1438 3.43359H7.29126V9.44297H11.1438C11.2913 9.44422 11.4338 9.47047 11.5719 9.52172ZM10.2875 8.58422H8.57563C8.51876 8.58422 8.46376 8.57359 8.41188 8.55172C8.35938 8.52984 8.31313 8.49922 8.27251 8.45859C8.23251 8.41859 8.20188 8.37234 8.18001 8.31922C8.15813 8.26672 8.14751 8.21234 8.14751 8.15547C8.14751 8.09859 8.15813 8.04359 8.18001 7.99109C8.20188 7.93859 8.23251 7.89172 8.27251 7.85172C8.31313 7.81172 8.35938 7.78047 8.41188 7.75859C8.46376 7.73672 8.51876 7.72609 8.57563 7.72609H10.2875C10.3444 7.72609 10.3988 7.73672 10.4513 7.75859C10.5038 7.78047 10.55 7.81172 10.5906 7.85172C10.6306 7.89172 10.6613 7.93859 10.6831 7.99109C10.705 8.04359 10.7156 8.09859 10.7156 8.15547C10.7156 8.21234 10.705 8.26672 10.6831 8.31922C10.6613 8.37234 10.6306 8.41859 10.5906 8.45859C10.55 8.49922 10.5038 8.52984 10.4513 8.55172C10.3988 8.57359 10.3444 8.58422 10.2875 8.58422ZM10.2875 6.86734H8.57563C8.51876 6.86734 8.46376 6.85672 8.41188 6.83484C8.35938 6.81297 8.31313 6.78234 8.27251 6.74172C8.23251 6.70172 8.20188 6.65484 8.18001 6.60234C8.15813 6.54984 8.14751 6.49547 8.14751 6.43859C8.14751 6.38109 8.15813 6.32672 8.18001 6.27422C8.20188 6.22172 8.23251 6.17484 8.27251 6.13484C8.31313 6.09484 8.35938 6.06359 8.41188 6.04172C8.46376 6.01984 8.51876 6.00922 8.57563 6.00922H10.2875C10.3444 6.00922 10.3988 6.01984 10.4513 6.04172C10.5038 6.06359 10.55 6.09484 10.5906 6.13484C10.6306 6.17484 10.6613 6.22172 10.6831 6.27422C10.705 6.32672 10.7156 6.38109 10.7156 6.43859C10.7156 6.49547 10.705 6.54984 10.6831 6.60234C10.6613 6.65484 10.6306 6.70172 10.5906 6.74172C10.55 6.78234 10.5038 6.81297 10.4513 6.83484C10.3988 6.85672 10.3444 6.86734 10.2875 6.86734ZM10.2875 5.15047H8.57563C8.51876 5.15047 8.46376 5.13984 8.41188 5.11797C8.35938 5.09609 8.31313 5.06484 8.27251 5.02484C8.23251 4.98484 8.20188 4.93797 8.18001 4.88547C8.15813 4.83297 8.14751 4.77859 8.14751 4.72109C8.14751 4.66422 8.15813 4.60984 8.18001 4.55734C8.20188 4.50484 8.23251 4.45797 8.27251 4.41797C8.31313 4.37734 8.35938 4.34672 8.41188 4.32484C8.46376 4.30297 8.51876 4.29234 8.57563 4.29234H10.2875C10.3444 4.29234 10.3988 4.30297 10.4513 4.32484C10.5038 4.34672 10.55 4.37734 10.5906 4.41797C10.6306 4.45797 10.6613 4.50484 10.6831 4.55734C10.705 4.60984 10.7156 4.66422 10.7156 4.72109C10.7156 4.77859 10.705 4.83297 10.6831 4.88547C10.6613 4.93797 10.6306 4.98484 10.5906 5.02484C10.55 5.06484 10.5038 5.09609 10.4513 5.11797C10.3988 5.13984 10.3444 5.15047 10.2875 5.15047Z" fill="#626262"/>
<mask id="mask0_228_1015" style="mask-type:luminance" maskUnits="userSpaceOnUse" x="0" y="14" width="24" height="9">
<path d="M0 14.4102H24V22.3202H0V14.4102Z" fill="white"/>
</mask>
<g mask="url(#mask0_228_1015)">
<path d="M0.0137329 16.7402C0.0137329 16.8246 0.0224828 16.9083 0.0387329 16.9915C0.0549828 17.074 0.0793579 17.1546 0.111858 17.2327C0.144358 17.3108 0.183733 17.3852 0.230608 17.4552C0.277483 17.5258 0.330608 17.5908 0.390608 17.6502C0.449983 17.7102 0.514983 17.7633 0.584983 17.8102C0.654983 17.8577 0.728733 17.8971 0.806858 17.9296C0.884983 17.9621 0.964983 17.9865 1.04748 18.0027C1.12998 18.0196 1.21373 18.0277 1.29811 18.0277H10.2106L9.92498 19.7446H8.14748C8.09061 19.7446 8.03561 19.7558 7.98373 19.7777C7.93123 19.7996 7.88498 19.8302 7.84436 19.8708C7.80436 19.9108 7.77373 19.9571 7.75186 20.0096C7.72998 20.0621 7.71936 20.1171 7.71936 20.174V21.8908C7.71936 21.9477 7.72998 22.0027 7.75186 22.0552C7.77373 22.1077 7.80436 22.154 7.84436 22.1946C7.88498 22.2346 7.93123 22.2658 7.98373 22.2877C8.03561 22.3096 8.09061 22.3202 8.14748 22.3202H15.8525C15.9094 22.3202 15.9637 22.3096 16.0162 22.2877C16.0687 22.2658 16.115 22.2346 16.1556 22.1946C16.1956 22.154 16.2262 22.1077 16.2481 22.0552C16.27 22.0027 16.2806 21.9477 16.2806 21.8908V20.174C16.2806 20.1171 16.27 20.0621 16.2481 20.0096C16.2262 19.9571 16.1956 19.9108 16.1556 19.8708C16.115 19.8302 16.0687 19.7996 16.0162 19.7777C15.9637 19.7558 15.9094 19.7446 15.8525 19.7446H14.075L13.7894 18.0277H22.7019C22.7862 18.0277 22.87 18.0196 22.9525 18.0027C23.035 17.9865 23.115 17.9621 23.1931 17.9296C23.2712 17.8971 23.345 17.8577 23.415 17.8102C23.485 17.7633 23.55 17.7102 23.6094 17.6502C23.6694 17.5908 23.7225 17.5258 23.7694 17.4552C23.8162 17.3852 23.8556 17.3108 23.8881 17.2327C23.9206 17.1546 23.945 17.074 23.9612 16.9915C23.9775 16.9083 23.9862 16.8246 23.9862 16.7402V14.5483H0.0137329V16.7402ZM11.1437 15.4527H12.8562C12.9131 15.4527 12.9675 15.4633 13.02 15.4852C13.0725 15.5071 13.1187 15.5377 13.1587 15.5783C13.1987 15.6183 13.23 15.6652 13.2519 15.7177C13.2731 15.7702 13.2844 15.8246 13.2844 15.8815C13.2844 15.939 13.2731 15.9933 13.2519 16.0458C13.23 16.0983 13.1987 16.1452 13.1587 16.1852C13.1187 16.2252 13.0725 16.2565 13.02 16.2783C12.9675 16.3002 12.9131 16.3108 12.8562 16.3108H11.1437C11.0869 16.3108 11.0325 16.3002 10.98 16.2783C10.9275 16.2565 10.8812 16.2252 10.8412 16.1852C10.8012 16.1452 10.77 16.0983 10.7481 16.0458C10.7269 15.9933 10.7156 15.939 10.7156 15.8815C10.7156 15.8246 10.7269 15.7702 10.7481 15.7177C10.77 15.6652 10.8012 15.6183 10.8412 15.5783C10.8812 15.5377 10.9275 15.5071 10.98 15.4852C11.0325 15.4633 11.0869 15.4527 11.1437 15.4527Z" fill="#626262"/>
</g>
<mask id="mask1_228_1015" style="mask-type:luminance" maskUnits="userSpaceOnUse" x="0" y="0" width="24" height="14">
<path d="M0 0H24V13.77H0V0Z" fill="white"/>
</mask>
<g mask="url(#mask1_228_1015)">
<path d="M22.7019 0H1.29811C1.21373 0 1.12998 0.00812496 1.04748 0.025C0.964983 0.0412499 0.884983 0.06625 0.806858 0.098125C0.728733 0.130625 0.654983 0.170625 0.584983 0.2175C0.514983 0.264375 0.449983 0.3175 0.390608 0.3775C0.330608 0.4375 0.277483 0.5025 0.230608 0.5725C0.183733 0.643125 0.144358 0.716875 0.111858 0.795C0.0793579 0.873125 0.0549828 0.95375 0.0387329 1.03688C0.0224828 1.11937 0.0137329 1.20312 0.0137329 1.2875V13.6894H23.9862V1.2875C23.9862 1.20312 23.9775 1.11937 23.9612 1.03688C23.945 0.95375 23.9206 0.873125 23.8881 0.795C23.8556 0.716875 23.8162 0.643125 23.7694 0.5725C23.7225 0.5025 23.6694 0.4375 23.6094 0.3775C23.55 0.3175 23.485 0.264375 23.415 0.2175C23.345 0.170625 23.2712 0.130625 23.1931 0.098125C23.115 0.06625 23.035 0.0412499 22.9525 0.025C22.87 0.00812496 22.7862 0 22.7019 0ZM19.2775 11.5894C19.2775 11.6462 19.2662 11.7006 19.245 11.7537C19.2231 11.8062 19.1919 11.8525 19.1519 11.8925C19.1119 11.9331 19.0656 11.9637 19.0131 11.9856C18.9606 12.0075 18.9062 12.0188 18.8494 12.0188H5.15061C5.09373 12.0188 5.03936 12.0075 4.98686 11.9856C4.93436 11.9637 4.88811 11.9331 4.84811 11.8925C4.80811 11.8525 4.77686 11.8062 4.75498 11.7537C4.73373 11.7006 4.72248 11.6462 4.72248 11.5894V3.86312C4.72248 3.80625 4.73373 3.75125 4.75498 3.69875C4.77686 3.64625 4.80811 3.6 4.84811 3.55937C4.88811 3.51937 4.93436 3.48812 4.98686 3.46625C5.03936 3.445 5.09373 3.43375 5.15061 3.43375H6.43498V3.00437C6.43498 2.9475 6.44561 2.89312 6.46748 2.84063C6.48936 2.7875 6.51998 2.74125 6.56061 2.70125C6.60061 2.66062 6.64686 2.63 6.69936 2.60812C6.75186 2.58625 6.80623 2.57562 6.86311 2.57562H11.1437C11.3025 2.57562 11.4556 2.605 11.6031 2.6625C11.7506 2.72062 11.8831 2.80312 12 2.91C12.1169 2.80312 12.2494 2.72062 12.3969 2.6625C12.5444 2.605 12.6975 2.57562 12.8562 2.57562H17.1369C17.1937 2.57562 17.2481 2.58625 17.3006 2.60812C17.3531 2.63 17.3994 2.66062 17.4394 2.70125C17.48 2.74125 17.5106 2.7875 17.5325 2.84063C17.5544 2.89312 17.565 2.9475 17.565 3.00437V3.43375H18.8494C18.9062 3.43375 18.9606 3.445 19.0131 3.46625C19.0656 3.48812 19.1119 3.51937 19.1519 3.55937C19.1919 3.6 19.2231 3.64625 19.245 3.69875C19.2662 3.75125 19.2775 3.80625 19.2775 3.86312V11.5894Z" fill="#626262"/>
<path d="M17.565 9.87248C17.565 9.92936 17.5544 9.98373 17.5325 10.0369C17.5106 10.0894 17.48 10.1356 17.4394 10.1756C17.3994 10.2162 17.3531 10.2469 17.3006 10.2687C17.2481 10.2906 17.1938 10.3012 17.1369 10.3012H12.8563C12.7994 10.3019 12.745 10.3125 12.6925 10.3344C12.64 10.3562 12.5938 10.3869 12.5538 10.4275C12.5138 10.4675 12.4825 10.5137 12.4606 10.5669C12.4388 10.6194 12.4281 10.6737 12.4281 10.7306C12.4281 10.7875 12.4175 10.8425 12.3956 10.895C12.3738 10.9475 12.3431 10.9937 12.3025 11.0344C12.2625 11.0744 12.2162 11.1056 12.1638 11.1275C12.1112 11.1494 12.0569 11.16 12 11.16H18.4213V4.29248H17.565V9.87248Z" fill="#626262"/>
<path d="M16.7088 9.44297V3.43359H12.8563C12.7994 3.43359 12.745 3.44484 12.6925 3.46672C12.64 3.48797 12.5938 3.51922 12.5538 3.55922C12.5138 3.59984 12.4825 3.64609 12.4607 3.69859C12.4388 3.75109 12.4282 3.80609 12.4282 3.86297V9.52172C12.5663 9.47047 12.7088 9.44422 12.8563 9.44297H16.7088ZM13.7125 4.29234H15.4244C15.4813 4.29234 15.5363 4.30297 15.5882 4.32484C15.6407 4.34672 15.6869 4.37734 15.7275 4.41797C15.7675 4.45797 15.7982 4.50484 15.82 4.55734C15.8419 4.60984 15.8525 4.66422 15.8525 4.72109C15.8525 4.77859 15.8419 4.83297 15.82 4.88547C15.7982 4.93797 15.7675 4.98484 15.7275 5.02484C15.6869 5.06484 15.6407 5.09609 15.5882 5.11797C15.5363 5.13984 15.4813 5.15047 15.4244 5.15047H13.7125C13.6557 5.15047 13.6007 5.13984 13.5488 5.11797C13.4963 5.09609 13.45 5.06484 13.4094 5.02484C13.3694 4.98484 13.3388 4.93797 13.3169 4.88547C13.295 4.83297 13.2844 4.77859 13.2844 4.72109C13.2844 4.66422 13.295 4.60984 13.3169 4.55734C13.3388 4.50484 13.3694 4.45797 13.4094 4.41797C13.45 4.37734 13.4963 4.34672 13.5488 4.32484C13.6007 4.30297 13.6557 4.29234 13.7125 4.29234ZM13.7125 6.00922H15.4244C15.4813 6.00922 15.5363 6.01984 15.5882 6.04172C15.6407 6.06359 15.6869 6.09484 15.7275 6.13484C15.7675 6.17484 15.7982 6.22172 15.82 6.27422C15.8419 6.32672 15.8525 6.38109 15.8525 6.43859C15.8525 6.49547 15.8419 6.54984 15.82 6.60234C15.7982 6.65484 15.7675 6.70172 15.7275 6.74172C15.6869 6.78234 15.6407 6.81297 15.5882 6.83484C15.5363 6.85672 15.4813 6.86734 15.4244 6.86734H13.7125C13.6557 6.86734 13.6007 6.85672 13.5488 6.83484C13.4963 6.81297 13.45 6.78234 13.4094 6.74172C13.3694 6.70172 13.3388 6.65484 13.3169 6.60234C13.295 6.54984 13.2844 6.49547 13.2844 6.43859C13.2844 6.38109 13.295 6.32672 13.3169 6.27422C13.3388 6.22172 13.3694 6.17484 13.4094 6.13484C13.45 6.09484 13.4963 6.06359 13.5488 6.04172C13.6007 6.01984 13.6557 6.00922 13.7125 6.00922ZM13.7125 7.72609H15.4244C15.4813 7.72609 15.5363 7.73672 15.5882 7.75859C15.6407 7.78047 15.6869 7.81172 15.7275 7.85172C15.7675 7.89172 15.7982 7.93859 15.82 7.99109C15.8419 8.04359 15.8525 8.09859 15.8525 8.15547C15.8525 8.21234 15.8419 8.26672 15.82 8.31922C15.7982 8.37234 15.7675 8.41859 15.7275 8.45859C15.6869 8.49922 15.6407 8.52984 15.5882 8.55172C15.5363 8.57359 15.4813 8.58422 15.4244 8.58422H13.7125C13.6557 8.58422 13.6007 8.57359 13.5488 8.55172C13.4963 8.52984 13.45 8.49922 13.4094 8.45859C13.3694 8.41859 13.3388 8.37234 13.3169 8.31922C13.295 8.26672 13.2844 8.21234 13.2844 8.15547C13.2844 8.09859 13.295 8.04359 13.3169 7.99109C13.3388 7.93859 13.3694 7.89172 13.4094 7.85172C13.45 7.81172 13.4963 7.78047 13.5488 7.75859C13.6007 7.73672 13.6557 7.72609 13.7125 7.72609Z" fill="#626262"/>
</g>
</svg>
