<svg width="24" height="25" viewBox="0 0 24 25" fill="none" xmlns="http://www.w3.org/2000/svg">
<mask id="mask0_228_1052" style="mask-type:luminance" maskUnits="userSpaceOnUse" x="0" y="18" width="7" height="7">
<path d="M0 18.96H6.21827V24.64H0V18.96Z" fill="white"/>
</mask>
<g mask="url(#mask0_228_1052)">
<path fill-rule="evenodd" clip-rule="evenodd" d="M0 20.4002L4.30774 24.6377L6.21002 23.757L1.39848 19.0239L0 20.4002Z" fill="#626262"/>
</g>
<path fill-rule="evenodd" clip-rule="evenodd" d="M10.3496 10.9888C11.3007 11.7594 12.4194 12.6401 13.5386 13.6857C14.6015 12.6401 15.7201 11.7594 16.6713 10.9888C19.0767 9.11757 20.755 7.74194 20.755 5.3207C20.755 3.44945 19.189 1.9082 17.2867 1.9082C15.6643 1.9082 14.769 2.56883 13.762 4.55007C13.7062 4.60507 13.5945 4.71507 13.5386 4.71507C13.4263 4.71507 13.3147 4.60507 13.2588 4.55007C12.2518 2.56883 11.3565 1.9082 9.73408 1.9082C7.8318 1.9082 6.26581 3.44945 6.26581 5.3207C6.26581 7.74194 7.99994 9.11757 10.3496 10.9888ZM8.61543 8.07194H11.5805L12.0837 6.0357C12.1395 5.8707 12.2518 5.8157 12.3635 5.8157C12.4752 5.7607 12.5875 5.8707 12.6433 5.9807L14.0418 9.61319L14.4333 7.74194C14.4333 7.63194 14.5456 7.52194 14.7131 7.52194H19.0767C19.2449 7.52194 19.3565 7.63194 19.3565 7.79694C19.3565 7.96194 19.2449 8.07194 19.0767 8.07194H14.9371L14.4333 10.7138C14.3775 10.8238 14.2658 10.9338 14.1535 10.9338C14.1535 10.9338 14.1535 10.9338 14.0977 10.9338C13.986 10.9338 13.8743 10.8788 13.8743 10.7688L12.4194 7.02632L12.0837 8.45757C12.0279 8.56757 11.9162 8.67757 11.8039 8.67757H8.61543C8.44728 8.67757 8.27977 8.51257 8.27977 8.34757C8.27977 8.23757 8.44728 8.07194 8.61543 8.07194Z" fill="#626262"/>
<path fill-rule="evenodd" clip-rule="evenodd" d="M16.2798 18.419L21.1466 13.9609V13.9059C20.6434 13.6859 20.0279 13.7959 19.6364 14.2365L15.8883 17.7034C16.0558 17.8684 16.1681 18.144 16.2798 18.419Z" fill="#626262"/>
<path d="M4.5317 12.365C4.5317 12.4225 4.52599 12.48 4.51393 12.5369C4.50251 12.5931 4.48601 12.6481 4.46317 12.7019C4.44096 12.755 4.41304 12.8062 4.38068 12.8537C4.34769 12.9019 4.31088 12.9469 4.26901 12.9875C4.22776 13.0281 4.18271 13.065 4.13385 13.0969C4.085 13.1294 4.03297 13.1562 3.97903 13.1781C3.92446 13.2006 3.86863 13.2169 3.81088 13.2287C3.75314 13.24 3.6954 13.2456 3.63639 13.2456C3.57738 13.2456 3.51964 13.24 3.4619 13.2287C3.40416 13.2169 3.34832 13.2006 3.29375 13.1781C3.23918 13.1562 3.18779 13.1294 3.13893 13.0969C3.09007 13.065 3.04502 13.0281 3.00314 12.9875C2.9619 12.9469 2.92446 12.9019 2.8921 12.8537C2.85974 12.8062 2.83182 12.755 2.80962 12.7019C2.78677 12.6481 2.76964 12.5931 2.75822 12.5369C2.7468 12.48 2.74109 12.4225 2.74109 12.365C2.74109 12.3069 2.7468 12.25 2.75822 12.1931C2.76964 12.1362 2.78677 12.0812 2.80962 12.0281C2.83182 11.9744 2.85974 11.9237 2.8921 11.8756C2.92446 11.8275 2.9619 11.7831 3.00314 11.7419C3.04502 11.7012 3.09007 11.665 3.13893 11.6325C3.18779 11.6006 3.23918 11.5731 3.29375 11.5512C3.34832 11.5294 3.40416 11.5125 3.4619 11.5012C3.51964 11.49 3.57738 11.4844 3.63639 11.4844C3.6954 11.4844 3.75314 11.49 3.81088 11.5012C3.86863 11.5125 3.92446 11.5294 3.97903 11.5512C4.03297 11.5731 4.085 11.6006 4.13385 11.6325C4.18271 11.665 4.22776 11.7012 4.26901 11.7419C4.31088 11.7831 4.34769 11.8275 4.38068 11.8756C4.41304 11.9237 4.44096 11.9744 4.46317 12.0281C4.48601 12.0812 4.50251 12.1362 4.51393 12.1931C4.52599 12.25 4.5317 12.3069 4.5317 12.365Z" fill="#626262"/>
<path fill-rule="evenodd" clip-rule="evenodd" d="M18.8534 14.1815C18.3496 14.0158 17.8464 14.1265 17.4543 14.5115L14.6573 17.0427C14.9372 17.0983 15.1605 17.1533 15.4403 17.3183L18.8534 14.1815Z" fill="#626262"/>
<mask id="mask1_228_1052" style="mask-type:luminance" maskUnits="userSpaceOnUse" x="21" y="8" width="3" height="3">
<path d="M21.6497 8.40039H24V10.6404H21.6497V8.40039Z" fill="white"/>
</mask>
<g mask="url(#mask1_228_1052)">
<path d="M24 9.50346C24 9.57533 23.993 9.6472 23.9784 9.71783C23.9644 9.78908 23.9429 9.85783 23.9149 9.9247C23.8864 9.99158 23.8521 10.0547 23.8115 10.1147C23.7703 10.1747 23.724 10.2303 23.6726 10.2816C23.6205 10.3328 23.5641 10.3785 23.5025 10.4185C23.4416 10.4585 23.3769 10.4928 23.309 10.5203C23.2411 10.5478 23.1713 10.5691 23.0996 10.5828C23.0273 10.5972 22.9543 10.6041 22.8813 10.6041C22.8077 10.6041 22.7347 10.5972 22.663 10.5828C22.5907 10.5691 22.5209 10.5478 22.453 10.5203C22.3851 10.4928 22.3204 10.4585 22.2595 10.4185C22.1986 10.3785 22.1421 10.3328 22.0901 10.2816C22.038 10.2303 21.9917 10.1747 21.9505 10.1147C21.9099 10.0547 21.8756 9.99158 21.8477 9.9247C21.8191 9.85783 21.7982 9.78908 21.7836 9.71783C21.7696 9.6472 21.762 9.57533 21.762 9.50346C21.762 9.43096 21.7696 9.35971 21.7836 9.28846C21.7982 9.21783 21.8191 9.14908 21.8477 9.08221C21.8756 9.01533 21.9099 8.95221 21.9505 8.89158C21.9917 8.83158 22.038 8.77596 22.0901 8.72533C22.1421 8.67408 22.1986 8.62846 22.2595 8.58783C22.3204 8.54783 22.3851 8.51408 22.453 8.48658C22.5209 8.45846 22.5907 8.43783 22.663 8.42408C22.7347 8.40971 22.8077 8.40283 22.8813 8.40283C22.9543 8.40283 23.0273 8.40971 23.0996 8.42408C23.1713 8.43783 23.2411 8.45846 23.309 8.48658C23.3769 8.51408 23.4416 8.54783 23.5025 8.58783C23.5641 8.62846 23.6205 8.67408 23.6726 8.72533C23.724 8.77596 23.7703 8.83158 23.8115 8.89158C23.8521 8.95221 23.8864 9.01533 23.9149 9.08221C23.9429 9.14908 23.9644 9.21783 23.9784 9.28846C23.993 9.35971 24 9.43096 24 9.50346Z" fill="#626262"/>
</g>
<path fill-rule="evenodd" clip-rule="evenodd" d="M22.4892 13.9609C22.2658 13.9609 21.986 14.0159 21.8179 14.1266C21.7062 14.1816 21.5945 14.2916 21.5387 14.3466L16.2798 19.1897C16.224 19.5197 16.0558 19.8497 15.8318 20.0703C15.4962 20.4553 14.993 20.6753 14.4892 20.6753C14.4334 20.6753 14.4334 20.6753 14.3775 20.6753L8.5038 20.4003C8.33566 20.4003 8.22398 20.2353 8.22398 20.1253C8.22398 19.9597 8.33566 19.7947 8.5038 19.8497L14.4334 20.0703C14.769 20.0703 15.1605 19.9597 15.3845 19.6847C15.5527 19.5197 15.6643 19.2447 15.7202 19.0241V18.6941C15.6643 18.1441 15.1605 17.7034 14.6015 17.6484L6.15355 16.7128C4.75508 16.5478 3.3566 17.0428 2.34962 18.0334L1.78998 18.5841L6.82487 23.5372L14.5457 23.7572C15.3287 23.8122 16.1117 23.4822 16.7271 22.9315L23.4962 16.2728C24 15.7222 24 14.8966 23.4962 14.3466C23.217 14.0709 22.8813 13.9609 22.4892 13.9609Z" fill="#626262"/>
<mask id="mask2_228_1052" style="mask-type:luminance" maskUnits="userSpaceOnUse" x="0" y="0" width="5" height="5">
<path d="M0.370544 0.640137H4.59389V4.72013H0.370544V0.640137Z" fill="white"/>
</mask>
<g mask="url(#mask2_228_1052)">
<path d="M4.47524 2.62382C4.47524 2.75382 4.46255 2.88257 4.43654 3.01007C4.41116 3.13757 4.37308 3.26195 4.32232 3.38195C4.27156 3.50195 4.20938 3.61632 4.13641 3.72445C4.06281 3.83257 3.97905 3.93257 3.88578 4.02445C3.79187 4.11695 3.69034 4.19882 3.58057 4.27132C3.47017 4.3432 3.35468 4.40445 3.23222 4.45445C3.10976 4.50382 2.98413 4.54132 2.85469 4.56695C2.72461 4.59257 2.5939 4.60507 2.46128 4.60507C2.3293 4.60507 2.19859 4.59257 2.06852 4.56695C1.93908 4.54132 1.81281 4.50382 1.69098 4.45445C1.56852 4.40445 1.4524 4.3432 1.34263 4.27132C1.23286 4.19882 1.1307 4.11695 1.03743 4.02445C0.944154 3.93257 0.860397 3.83257 0.786793 3.72445C0.713189 3.61632 0.651641 3.50195 0.60088 3.38195C0.550118 3.26195 0.512047 3.13757 0.486032 3.01007C0.460652 2.88257 0.447327 2.75382 0.447327 2.62382C0.447327 2.49382 0.460652 2.36508 0.486032 2.23695C0.512047 2.10945 0.550118 1.9857 0.60088 1.8657C0.651641 1.74508 0.713189 1.63133 0.786793 1.5232C0.860397 1.41508 0.944154 1.31445 1.03743 1.22258C1.1307 1.1307 1.23286 1.04883 1.34263 0.976328C1.4524 0.903828 1.56852 0.843203 1.69098 0.793203C1.81281 0.743203 1.93908 0.705703 2.06852 0.680703C2.19859 0.655078 2.3293 0.642578 2.46128 0.642578C2.5939 0.642578 2.72461 0.655078 2.85469 0.680703C2.98413 0.705703 3.10976 0.743203 3.23222 0.793203C3.35468 0.843203 3.47017 0.903828 3.58057 0.976328C3.69034 1.04883 3.79187 1.1307 3.88578 1.22258C3.97905 1.31445 4.06281 1.41508 4.13641 1.5232C4.20938 1.63133 4.27156 1.74508 4.32232 1.8657C4.37308 1.9857 4.41116 2.10945 4.43654 2.23695C4.46255 2.36508 4.47524 2.49382 4.47524 2.62382Z" fill="#626262"/>
</g>
</svg>
