<svg width="24" height="23" viewBox="0 0 24 23" fill="none" xmlns="http://www.w3.org/2000/svg">
<mask id="mask0_228_1030" style="mask-type:luminance" maskUnits="userSpaceOnUse" x="1" y="0" width="22" height="4">
<path d="M1.20001 0.319824H22.8V3.86482H1.20001V0.319824Z" fill="white"/>
</mask>
<g mask="url(#mask0_228_1030)">
<path d="M21.8569 0.321777H2.14314C1.67127 0.321777 1.28564 0.708027 1.28564 1.18053V3.75553H22.7144V1.18053C22.7144 0.708027 22.3288 0.321777 21.8569 0.321777ZM3.42877 2.89678C2.95689 2.89678 2.57127 2.51053 2.57127 2.03865C2.57127 1.56678 2.95689 1.18053 3.42877 1.18053C3.90002 1.18053 4.28564 1.56678 4.28564 2.03865C4.28564 2.51053 3.90002 2.89678 3.42877 2.89678ZM6.00002 2.89678C5.52877 2.89678 5.14314 2.51053 5.14314 2.03865C5.14314 1.56678 5.52877 1.18053 6.00002 1.18053C6.47127 1.18053 6.85689 1.56678 6.85689 2.03865C6.85689 2.51053 6.47127 2.89678 6.00002 2.89678ZM8.57127 2.89678C8.10002 2.89678 7.7144 2.51053 7.7144 2.03865C7.7144 1.56678 8.10002 1.18053 8.57127 1.18053C9.04315 1.18053 9.42877 1.56678 9.42877 2.03865C9.42877 2.51053 9.04315 2.89678 8.57127 2.89678Z" fill="#626262"/>
</g>
<path d="M23.8713 8.04658L22.7144 4.18408H1.28566L0.128784 8.04658H23.8713Z" fill="#626262"/>
<mask id="mask1_228_1030" style="mask-type:luminance" maskUnits="userSpaceOnUse" x="0" y="8" width="24" height="5">
<path d="M0 8.34473H24V12.0247H0V8.34473Z" fill="white"/>
</mask>
<g mask="url(#mask1_228_1030)">
<path d="M20.5712 8.47607H0V10.1923C0 11.1367 0.77125 11.9092 1.71438 11.9092C2.65687 11.9092 3.42875 11.1367 3.42875 10.1923C3.42875 11.1367 4.2 11.9092 5.14313 11.9092C6.08562 11.9092 6.85687 11.1367 6.85687 10.1923C6.85687 11.1367 7.62875 11.9092 8.57125 11.9092C9.51437 11.9092 10.2856 11.1367 10.2856 10.1923C10.2856 11.1367 11.0569 11.9092 12 11.9092C12.9431 11.9092 13.7144 11.1367 13.7144 10.1923C13.7144 11.1367 14.4856 11.9092 15.4288 11.9092C16.3713 11.9092 17.1431 11.1367 17.1431 10.1923C17.1431 11.1367 17.9144 11.9092 18.8569 11.9092C19.8 11.9092 20.5712 11.1367 20.5712 10.1923C20.5712 11.1367 21.3431 11.9092 22.2856 11.9092C23.2288 11.9092 24 11.1367 24 10.1923V8.47607H20.5712Z" fill="#626262"/>
</g>
<path d="M19.7144 20.921C19.4569 20.921 19.2856 20.7491 19.2856 20.4916V19.6335C19.2856 19.376 19.4569 19.2041 19.7144 19.2041C19.9713 19.2041 20.1431 19.376 20.1431 19.6335V20.4916C20.1431 20.7491 19.9713 20.921 19.7144 20.921Z" fill="#626262"/>
<path d="M7.28564 19.6334C7.15689 19.6334 7.02877 19.5902 6.94314 19.5046C6.77127 19.3327 6.81439 19.0752 6.98564 18.904L10.4144 15.8996C10.5856 15.7284 10.8431 15.7709 11.0144 15.9427C11.1856 16.1146 11.1431 16.3721 10.9713 16.5434L7.54314 19.5477C7.50002 19.5902 7.37127 19.6334 7.28564 19.6334Z" fill="#626262"/>
<path d="M9.68561 19.6336C9.55686 19.6336 9.42873 19.5904 9.34311 19.5048C9.17123 19.3329 9.21436 19.0754 9.38561 18.9042L10.8431 17.6167C11.0144 17.4448 11.2712 17.4879 11.4431 17.6598C11.6144 17.8311 11.5712 18.0886 11.4 18.2604L9.94311 19.5479C9.85686 19.5904 9.77123 19.6336 9.68561 19.6336Z" fill="#626262"/>
<mask id="mask2_228_1030" style="mask-type:luminance" maskUnits="userSpaceOnUse" x="1" y="11" width="22" height="12">
<path d="M1.20001 11.3848H22.8V22.6398H1.20001V11.3848Z" fill="white"/>
</mask>
<g mask="url(#mask2_228_1030)">
<path d="M22.2856 12.3381C21.6 12.3381 20.9569 11.995 20.5713 11.48C20.1856 11.995 19.5431 12.3381 18.8569 12.3381C18.1713 12.3381 17.5288 11.995 17.1431 11.48C16.7569 11.995 16.1144 12.3381 15.4288 12.3381C14.7431 12.3381 14.1 11.995 13.7144 11.48C13.3288 11.995 12.6856 12.3381 12 12.3381C11.3144 12.3381 10.6713 11.995 10.2856 11.48C9.90002 11.995 9.2569 12.3381 8.57127 12.3381C7.88564 12.3381 7.24314 11.995 6.85689 11.48C6.47127 11.995 5.82877 12.3381 5.14314 12.3381C4.45689 12.3381 3.81439 11.995 3.42877 11.48C3.04314 11.995 2.40002 12.3381 1.71439 12.3381C1.58564 12.3381 1.41439 12.3381 1.28564 12.2956V21.7794C1.28564 22.2519 1.67127 22.6381 2.14314 22.6381H15V18.7756C15 17.1019 16.3288 15.7712 18 15.7712C19.6713 15.7712 21 17.1019 21 18.7756V22.6381H21.8569C22.3288 22.6381 22.7144 22.2519 22.7144 21.7794V12.2956C22.5856 12.3381 22.4144 12.3381 22.2856 12.3381ZM12.4288 20.0631C12.4288 20.535 12.0431 20.9212 11.5713 20.9212H3.85689C3.38564 20.9212 3.00002 20.535 3.00002 20.0631V14.055C3.00002 13.5831 3.38564 13.1969 3.85689 13.1969H11.5713C12.0431 13.1969 12.4288 13.5831 12.4288 14.055V20.0631Z" fill="#626262"/>
</g>
</svg>
