<svg width="44" height="32" viewBox="0 0 44 32" fill="none" xmlns="http://www.w3.org/2000/svg">
<path d="M7.75982 31.7508C5.79107 31.7508 4.10942 31.0453 2.71489 29.6344C1.32036 28.2234 0.590283 26.5172 0.524658 24.5156C0.524658 24.2203 0.541064 23.925 0.573877 23.6297C0.606689 23.3344 0.655908 23.0391 0.721533 22.7438L4.85591 6.20626C5.31528 4.43439 6.25044 2.99884 7.66138 1.89962C9.07232 0.800403 10.6801 0.250793 12.4848 0.250793H31.6801C33.4848 0.250793 35.0926 0.800403 36.5036 1.89962C37.9145 2.99884 38.8497 4.43439 39.309 6.20626L43.4434 22.7438C43.509 23.0391 43.5665 23.3426 43.6157 23.6543C43.6649 23.966 43.6895 24.2695 43.6895 24.5649C43.6895 26.5664 42.9758 28.2645 41.5485 29.659C40.1211 31.0535 38.4067 31.7508 36.4051 31.7508C35.027 31.7508 33.7473 31.3899 32.5661 30.668C31.3848 29.9461 30.4989 28.9617 29.9083 27.7149L28.5301 24.8602C28.3661 24.532 28.12 24.2859 27.7918 24.1219C27.4637 23.9578 27.1192 23.8758 26.7583 23.8758H17.4067C17.0458 23.8758 16.7012 23.9578 16.3731 24.1219C16.045 24.2859 15.7989 24.532 15.6348 24.8602L14.2567 27.7149C13.6661 28.9617 12.7801 29.9461 11.5989 30.668C10.4176 31.3899 9.13794 31.7508 7.75982 31.7508ZM7.89088 28.7977C8.68944 28.7977 9.42779 28.5848 10.1059 28.1592C10.784 27.7335 11.2981 27.1588 11.6481 26.4352L13.0262 23.6297C13.4528 22.7766 14.0516 22.1121 14.8227 21.6363C15.5938 21.1606 16.4551 20.9227 17.4067 20.9227H26.7583C27.7098 20.9227 28.5711 21.1688 29.3422 21.6609C30.1133 22.1531 30.7286 22.8094 31.1879 23.6297L32.5661 26.4352C32.9161 27.1588 33.4301 27.7335 34.1082 28.1592C34.7864 28.5848 35.5234 28.7977 36.3192 28.7977C37.4921 28.7977 38.5051 28.3957 39.3583 27.5918C40.2114 26.7879 40.6544 25.7953 40.6872 24.6141C40.6872 24.4828 40.6379 24.0891 40.5395 23.4328L36.4051 6.94454C36.1426 5.86173 35.5783 4.96759 34.712 4.26212C33.8458 3.55665 32.8351 3.20392 31.6801 3.20392H12.4848C11.3461 3.20392 10.3395 3.54845 9.46515 4.23751C8.59076 4.92657 8.02232 5.82892 7.75982 6.94454L3.62544 23.4328C3.59263 23.5641 3.54341 23.9414 3.47778 24.5649C3.47778 25.762 3.90858 26.7668 4.77017 27.5791C5.63179 28.3915 6.67203 28.7977 7.89088 28.7977ZM25.0442 13.5399C25.465 13.5399 25.8149 13.3975 26.0938 13.1129C26.3727 12.8282 26.5122 12.4755 26.5122 12.0547C26.5122 11.6339 26.3698 11.284 26.0852 11.0051C25.8005 10.7262 25.4478 10.5867 25.027 10.5867C24.6062 10.5867 24.2563 10.7291 23.9774 11.0137C23.6985 11.2984 23.559 11.6511 23.559 12.0719C23.559 12.4927 23.7014 12.8426 23.986 13.1215C24.2707 13.4004 24.6234 13.5399 25.0442 13.5399ZM28.9817 9.60236C29.4025 9.60236 29.7524 9.46003 30.0313 9.17538C30.3102 8.8907 30.4497 8.53797 30.4497 8.11718C30.4497 7.69636 30.3073 7.3465 30.0227 7.06759C29.738 6.78868 29.3853 6.64923 28.9645 6.64923C28.5437 6.64923 28.1938 6.79155 27.9149 7.0762C27.636 7.36088 27.4965 7.71362 27.4965 8.13441C27.4965 8.55523 27.6389 8.90509 27.9235 9.184C28.2082 9.4629 28.5609 9.60236 28.9817 9.60236ZM28.9817 17.4774C29.4025 17.4774 29.7524 17.335 30.0313 17.0504C30.3102 16.7657 30.4497 16.413 30.4497 15.9922C30.4497 15.5714 30.3073 15.2215 30.0227 14.9426C29.738 14.6637 29.3853 14.5242 28.9645 14.5242C28.5437 14.5242 28.1938 14.6666 27.9149 14.9512C27.636 15.2359 27.4965 15.5886 27.4965 16.0094C27.4965 16.4302 27.6389 16.7801 27.9235 17.059C28.2082 17.3379 28.5609 17.4774 28.9817 17.4774ZM32.9192 13.5399C33.34 13.5399 33.6899 13.3975 33.9688 13.1129C34.2477 12.8282 34.3872 12.4755 34.3872 12.0547C34.3872 11.6339 34.2448 11.284 33.9602 11.0051C33.6755 10.7262 33.3228 10.5867 32.902 10.5867C32.4812 10.5867 32.1313 10.7291 31.8524 11.0137C31.5735 11.2984 31.434 11.6511 31.434 12.0719C31.434 12.4927 31.5764 12.8426 31.861 13.1215C32.1457 13.4004 32.4984 13.5399 32.9192 13.5399ZM15.1976 16.7391C15.5547 16.7391 15.8481 16.6229 16.0778 16.3905C16.3075 16.158 16.4223 15.8641 16.4223 15.5086V13.2938H18.6372C18.9926 13.2938 19.2866 13.177 19.519 12.9435C19.7514 12.71 19.8676 12.4147 19.8676 12.0576C19.8676 11.7005 19.7514 11.407 19.519 11.1774C19.2866 10.9477 18.9926 10.8328 18.6372 10.8328H16.4223V8.61798C16.4223 8.26252 16.3056 7.96857 16.0721 7.73613C15.8385 7.50372 15.5432 7.38751 15.1861 7.38751C14.829 7.38751 14.5356 7.50372 14.3059 7.73613C14.0762 7.96857 13.9614 8.26252 13.9614 8.61798V10.8328H11.7465C11.3911 10.8328 11.0971 10.9496 10.8647 11.1831C10.6323 11.4166 10.5161 11.7119 10.5161 12.069C10.5161 12.4261 10.6323 12.7195 10.8647 12.9492C11.0971 13.1789 11.3911 13.2938 11.7465 13.2938H13.9614V15.5086C13.9614 15.8641 14.0781 16.158 14.3116 16.3905C14.5451 16.6229 14.8405 16.7391 15.1976 16.7391Z" fill="white"/>
</svg>
