<svg width="44" height="37" viewBox="0 0 44 37" fill="none" xmlns="http://www.w3.org/2000/svg">
<path d="M5.44678 30.2067C4.63467 30.2067 3.93945 29.9175 3.36113 29.3392C2.78281 28.7609 2.49365 28.0657 2.49365 27.2535V3.62854C2.49365 2.81643 2.78281 2.12122 3.36113 1.5429C3.93945 0.964575 4.63467 0.675415 5.44678 0.675415H38.9155C39.7276 0.675415 40.4229 0.964575 41.0012 1.5429C41.5795 2.12122 41.8687 2.81643 41.8687 3.62854V27.2535C41.8687 28.0657 41.5795 28.7609 41.0012 29.3392C40.4229 29.9175 39.7276 30.2067 38.9155 30.2067H5.44678ZM5.44678 27.2535H38.9155V3.62854H5.44678V27.2535ZM2.00146 36.1129C1.58311 36.1129 1.23242 35.9706 0.949414 35.6859C0.666406 35.4013 0.524902 35.0485 0.524902 34.6277C0.524902 34.2069 0.666406 33.8571 0.949414 33.5782C1.23242 33.2992 1.58311 33.1598 2.00146 33.1598H42.3608C42.7792 33.1598 43.1299 33.3021 43.4129 33.5868C43.6959 33.8714 43.8374 34.2242 43.8374 34.645C43.8374 35.0658 43.6959 35.4156 43.4129 35.6946C43.1299 35.9735 42.7792 36.1129 42.3608 36.1129H2.00146Z" fill="white"/>
</svg>
