<svg width="36" height="40" viewBox="0 0 36 40" fill="none" xmlns="http://www.w3.org/2000/svg">
<path d="M2.95288 39.3748C2.14077 39.3748 1.44556 39.0857 0.867236 38.5073C0.288916 37.929 -0.000244141 37.2338 -0.000244141 36.4217V6.89044C-0.000244141 6.07833 0.288916 5.38312 0.867236 4.8048C1.44556 4.22648 2.14077 3.93732 2.95288 3.93732H13.0427C13.2068 2.78888 13.7318 1.84552 14.6177 1.10724C15.5037 0.368958 16.5373 -0.000183105 17.7185 -0.000183105C18.8998 -0.000183105 19.9333 0.368958 20.8193 1.10724C21.7052 1.84552 22.2302 2.78888 22.3943 3.93732H32.4841C33.2962 3.93732 33.9915 4.22648 34.5698 4.8048C35.1481 5.38312 35.4373 6.07833 35.4373 6.89044V36.4217C35.4373 37.2338 35.1481 37.929 34.5698 38.5073C33.9915 39.0857 33.2962 39.3748 32.4841 39.3748H2.95288ZM2.95288 36.4217H32.4841V6.89044H2.95288V36.4217ZM9.35132 31.4998H19.8349C20.2533 31.4998 20.604 31.3575 20.887 31.0728C21.17 30.7882 21.3115 30.4354 21.3115 30.0146C21.3115 29.5938 21.17 29.244 20.887 28.9651C20.604 28.6861 20.2533 28.5467 19.8349 28.5467H9.35132C8.93296 28.5467 8.58228 28.689 8.29927 28.9737C8.01626 29.2583 7.87476 29.6111 7.87476 30.0319C7.87476 30.4527 8.01626 30.8026 8.29927 31.0815C8.58228 31.3604 8.93296 31.4998 9.35132 31.4998ZM9.35132 23.1326H26.0857C26.5041 23.1326 26.8547 22.9903 27.1377 22.7057C27.4208 22.421 27.5623 22.0682 27.5623 21.6475C27.5623 21.2266 27.4208 20.8768 27.1377 20.5979C26.8547 20.319 26.5041 20.1795 26.0857 20.1795H9.35132C8.93296 20.1795 8.58228 20.3218 8.29927 20.6065C8.01626 20.8912 7.87476 21.2439 7.87476 21.6647C7.87476 22.0855 8.01626 22.4354 8.29927 22.7143C8.58228 22.9932 8.93296 23.1326 9.35132 23.1326ZM9.35132 14.7654H26.0857C26.5041 14.7654 26.8547 14.6231 27.1377 14.3385C27.4208 14.0538 27.5623 13.7011 27.5623 13.2803C27.5623 12.8594 27.4208 12.5096 27.1377 12.2307C26.8547 11.9518 26.5041 11.8123 26.0857 11.8123H9.35132C8.93296 11.8123 8.58228 11.9546 8.29927 12.2393C8.01626 12.524 7.87476 12.8767 7.87476 13.2975C7.87476 13.7183 8.01626 14.0682 8.29927 14.3471C8.58228 14.626 8.93296 14.7654 9.35132 14.7654ZM17.7185 6.05372C18.1779 6.05372 18.5798 5.88146 18.9244 5.53693C19.2689 5.1924 19.4412 4.79044 19.4412 4.33107C19.4412 3.87169 19.2689 3.46974 18.9244 3.12521C18.5798 2.78068 18.1779 2.60841 17.7185 2.60841C17.2591 2.60841 16.8572 2.78068 16.5126 3.12521C16.1681 3.46974 15.9959 3.87169 15.9959 4.33107C15.9959 4.79044 16.1681 5.1924 16.5126 5.53693C16.8572 5.88146 17.2591 6.05372 17.7185 6.05372Z" fill="white"/>
</svg>
