<svg width="198" height="70" viewBox="0 0 198 70" fill="none" xmlns="http://www.w3.org/2000/svg">
<g filter="url(#filter0_d_182_680)">
<path d="M155.876 0H188C193.523 0 198 4.47715 198 10V60C198 65.5229 193.523 70 188 70H128C129.228 62.5149 131.824 55.3197 135.656 48.774L141.009 39.6324L143.332 34.7191C146.32 28.3989 148.751 21.8295 150.595 15.0861L150.92 13.8971L155.876 0Z" fill="#FF8BB5"/>
</g>
<path d="M0 10C0 4.47715 4.47715 0 10 0H166L160.812 17.5L158.884 25.873C157.407 32.2815 155.233 38.5089 152.4 44.4436L149.206 51.1328C147.954 53.755 146.934 56.4813 146.155 59.2807L143.175 70H10C4.47716 70 0 65.5229 0 60V10Z" fill="#2A5470" fill-opacity="0.85"/>
<path d="M0 10C0 4.47715 4.47715 0 10 0H158L150.672 19.5588L148.795 27.2936C146.887 35.1557 144.181 42.8025 140.719 50.1148L139.298 53.1169C136.738 58.5245 134.744 64.1823 133.347 70H10C4.47715 70 0 65.5229 0 60V10Z" fill="#2A5470"/>
<defs>
<filter id="filter0_d_182_680" x="128" y="0" width="70" height="70" filterUnits="userSpaceOnUse" color-interpolation-filters="sRGB">
<feFlood flood-opacity="0" result="BackgroundImageFix"/>
<feColorMatrix in="SourceAlpha" type="matrix" values="0 0 0 0 0 0 0 0 0 0 0 0 0 0 0 0 0 0 127 0" result="hardAlpha"/>
<feOffset/>
<feComposite in2="hardAlpha" operator="out"/>
<feColorMatrix type="matrix" values="0 0 0 0 0 0 0 0 0 0 0 0 0 0 0 0 0 0 0.25 0"/>
<feBlend mode="normal" in2="BackgroundImageFix" result="effect1_dropShadow_182_680"/>
<feBlend mode="normal" in="SourceGraphic" in2="effect1_dropShadow_182_680" result="shape"/>
</filter>
</defs>
</svg>
