<svg width="26" height="25" viewBox="0 0 26 25" fill="none" xmlns="http://www.w3.org/2000/svg">
<path d="M14 13.4375L12.3438 15.0938C12.1562 15.2812 12.0625 15.5 12.0625 15.75C12.0625 16 12.1562 16.2188 12.3438 16.4062C12.5312 16.5938 12.75 16.6875 13 16.6875C13.25 16.6875 13.4688 16.5938 13.6562 16.4062L16.9062 13.1562C17.0938 12.9688 17.1875 12.75 17.1875 12.5C17.1875 12.25 17.0938 12.0312 16.9062 11.8438L13.6562 8.59375C13.4688 8.40625 13.25 8.3125 13 8.3125C12.75 8.3125 12.5312 8.40625 12.3438 8.59375C12.1562 8.78125 12.0625 9 12.0625 9.25C12.0625 9.5 12.1562 9.71875 12.3438 9.90625L14 11.5625H9.25C8.97917 11.5625 8.75521 11.651 8.57812 11.8281C8.40104 12.0052 8.3125 12.2292 8.3125 12.5C8.3125 12.7708 8.40104 12.9948 8.57812 13.1719C8.75521 13.349 8.97917 13.4375 9.25 13.4375H14ZM13 25C11.2917 25 9.67708 24.6719 8.15625 24.0156C6.63542 23.3594 5.30729 22.4635 4.17188 21.3281C3.03646 20.1927 2.14062 18.8646 1.48438 17.3438C0.828125 15.8229 0.5 14.2083 0.5 12.5C0.5 10.7708 0.828125 9.14583 1.48438 7.625C2.14062 6.10417 3.03646 4.78125 4.17188 3.65625C5.30729 2.53125 6.63542 1.64062 8.15625 0.984375C9.67708 0.328125 11.2917 0 13 0C14.7292 0 16.3542 0.328125 17.875 0.984375C19.3958 1.64062 20.7188 2.53125 21.8438 3.65625C22.9688 4.78125 23.8594 6.10417 24.5156 7.625C25.1719 9.14583 25.5 10.7708 25.5 12.5C25.5 14.2083 25.1719 15.8229 24.5156 17.3438C23.8594 18.8646 22.9688 20.1927 21.8438 21.3281C20.7188 22.4635 19.3958 23.3594 17.875 24.0156C16.3542 24.6719 14.7292 25 13 25ZM13 23.125C15.9583 23.125 18.4688 22.0885 20.5312 20.0156C22.5938 17.9427 23.625 15.4375 23.625 12.5C23.625 9.54167 22.5938 7.03125 20.5312 4.96875C18.4688 2.90625 15.9583 1.875 13 1.875C10.0625 1.875 7.55729 2.90625 5.48438 4.96875C3.41146 7.03125 2.375 9.54167 2.375 12.5C2.375 15.4375 3.41146 17.9427 5.48438 20.0156C7.55729 22.0885 10.0625 23.125 13 23.125Z" fill="#F8FCFF"/>
</svg>
