<svg width="24" height="19" viewBox="0 0 24 19" fill="none" xmlns="http://www.w3.org/2000/svg">
<path d="M7.22074 6.62192L9.67012 4.17255C9.62762 4.1038 9.58262 4.0363 9.53637 3.97067L7.02637 6.48005L7.22074 6.62192Z" fill="#969696"/>
<mask id="path-2-inside-1_182_620" fill="white">
<path d="M6.80494 6.31874L9.37182 3.75187C9.32182 3.68999 9.26994 3.63062 9.21619 3.57187L6.61182 6.17687L6.80494 6.31874Z"/>
</mask>
<path d="M6.80494 6.31874L9.37182 3.75187C9.32182 3.68999 9.26994 3.63062 9.21619 3.57187L6.61182 6.17687L6.80494 6.31874Z" fill="#969696"/>
<path d="M6.80494 6.31874L6.01555 7.39329L6.93821 8.0711L7.74775 7.26155L6.80494 6.31874ZM9.37182 3.75187L10.3146 4.69468L11.1627 3.84665L10.4089 2.91384L9.37182 3.75187ZM9.21619 3.57187L10.1999 2.67185L9.25891 1.6433L8.27327 2.62917L9.21619 3.57187ZM6.61182 6.17687L5.66889 5.23417L4.57115 6.33219L5.82243 7.25141L6.61182 6.17687ZM7.74775 7.26155L10.3146 4.69468L8.42901 2.80906L5.86213 5.37593L7.74775 7.26155ZM10.4089 2.91384C10.3377 2.82574 10.2671 2.74531 10.1999 2.67185L8.23245 4.47189C8.27274 4.51593 8.30595 4.55424 8.33476 4.5899L10.4089 2.91384ZM8.27327 2.62917L5.66889 5.23417L7.55474 7.11956L10.1591 4.51456L8.27327 2.62917ZM5.82243 7.25141L6.01555 7.39329L7.59433 5.2442L7.40121 5.10233L5.82243 7.25141Z" fill="#969696" mask="url(#path-2-inside-1_182_620)"/>
<path d="M6.41748 5.27068L8.63748 3.05068C8.57248 3.00318 8.50623 2.95693 8.43873 2.91318L6.41748 4.93505V5.27068Z" fill="#969696"/>
<path d="M6.41748 4.55191L8.20061 2.76941C8.12748 2.72941 8.05373 2.69191 7.97811 2.65628L6.41748 4.21691V4.55191Z" fill="#969696"/>
<path d="M6.41748 3.83375L7.71061 2.54063C7.62936 2.50875 7.54623 2.48063 7.46186 2.45438L6.41748 3.49875V3.83375Z" fill="#969696"/>
<path d="M6.41748 3.11562L7.16061 2.37187C7.06811 2.35124 6.97311 2.33437 6.87811 2.31937L6.41748 2.78062V3.11562Z" fill="#969696"/>
<path d="M6.41748 5.98878L9.02748 3.37878C8.96998 3.32378 8.91186 3.27003 8.85123 3.21878L6.41748 5.65316V5.98878Z" fill="#969696"/>
<path d="M6.53248 2.28245C6.49373 2.27932 6.45561 2.27807 6.41748 2.27682V2.39745L6.53248 2.28245Z" fill="#969696"/>
<path d="M7.63564 6.92503L9.91752 4.64315C9.88377 4.56628 9.84752 4.49065 9.80877 4.4169L7.44189 6.78378L7.63564 6.92503Z" fill="#969696"/>
<path d="M8.46607 7.53184L10.2292 5.76871C10.2167 5.67121 10.2023 5.57434 10.1836 5.47934L8.27295 7.38996L8.46607 7.53184Z" fill="#969696"/>
<path d="M8.05068 7.22813L10.1082 5.17063C10.0844 5.08501 10.0576 5.00001 10.0282 4.91626L7.85693 7.08751L8.05068 7.22813Z" fill="#969696"/>
<path d="M9.29678 8.13874L10.113 7.32186C10.1524 7.18186 10.1843 7.03811 10.208 6.89249L9.10303 7.99749L9.29678 8.13874Z" fill="#969696"/>
<path d="M8.88125 7.83566L10.2531 6.46316C10.2569 6.39441 10.2594 6.32503 10.2594 6.25441C10.2594 6.21066 10.2575 6.16816 10.2563 6.12503L8.6875 7.69378L8.88125 7.83566Z" fill="#969696"/>
<path d="M9.6373 8.38746C9.73043 8.24059 9.8148 8.08871 9.88855 7.92996L9.51855 8.29996L9.6373 8.38746Z" fill="#969696"/>
<mask id="mask0_182_620" style="mask-type:luminance" maskUnits="userSpaceOnUse" x="0" y="0" width="24" height="19">
<path d="M0 0H24V18.36H0V0Z" fill="white"/>
</mask>
<g mask="url(#mask0_182_620)">
<path d="M22.6118 18.3431H1.38805C0.647422 18.3431 0.0449219 17.7406 0.0449219 17.0006V1.33186C0.0449219 0.591239 0.647422 -0.011261 1.38805 -0.011261H22.6118C23.3524 -0.011261 23.9549 0.591864 23.9549 1.33186V17.0006C23.9549 17.7406 23.3524 18.3431 22.6118 18.3431ZM1.38805 0.526239C0.943672 0.526239 0.582422 0.887489 0.582422 1.33186V17.0006C0.582422 17.445 0.943672 17.8062 1.38805 17.8062H22.6118C23.0562 17.8062 23.4174 17.445 23.4174 17.0006V1.33186C23.4174 0.887489 23.0562 0.526239 22.6118 0.526239H1.38805Z" fill="#969696"/>
</g>
<path d="M13.7324 5.27567H14.7637V8.65004H13.7324V5.27567Z" fill="#969696"/>
<path d="M15.3325 5.5575H16.3631V8.65H15.3325V5.5575Z" fill="#969696"/>
<path d="M16.9316 6.12H17.9623V8.65H16.9316V6.12Z" fill="#969696"/>
<path d="M18.5312 4.71317H19.5619V8.65004H18.5312V4.71317Z" fill="#969696"/>
<path d="M20.1313 4.71317H21.162V8.65004H20.1313V4.71317Z" fill="#969696"/>
<path d="M21.1099 10.9612L15.6974 13.6212L13.7274 12.4287L10.1737 14.0437L4.41678 14.5519L2.1499 16.1631H21.0937L21.1099 10.9612Z" fill="#969696"/>
<path d="M6.27143 10.2256C4.0758 10.2256 2.28955 8.43934 2.28955 6.24372C2.28955 4.09809 3.99518 2.34372 6.12205 2.26559V6.20434H6.12393L9.45205 8.63622C9.45143 8.63622 9.45143 8.63622 9.45143 8.63622C8.72518 9.6006 7.56955 10.2256 6.27143 10.2256Z" fill="#969696"/>
</svg>
