<svg width="24" height="18" viewBox="0 0 24 18" fill="none" xmlns="http://www.w3.org/2000/svg">
<path d="M22.9565 7.95654H1.04346C0.467168 7.95654 0 8.42371 0 9C0 9.5763 0.467168 10.0435 1.04346 10.0435H22.9565C23.5328 10.0435 24 9.5763 24 9C24 8.42371 23.5328 7.95654 22.9565 7.95654Z" fill="#F8FCFF"/>
<path d="M1.04346 2.73927H22.9565C23.5328 2.73927 24 2.2721 24 1.6958C24 1.11951 23.5328 0.652344 22.9565 0.652344H1.04346C0.467168 0.652344 0 1.11951 0 1.6958C0 2.2721 0.467168 2.73927 1.04346 2.73927Z" fill="#F8FCFF"/>
<path d="M22.9565 15.2612H1.04346C0.467168 15.2612 0 15.7284 0 16.3047C0 16.881 0.467168 17.3482 1.04346 17.3482H22.9565C23.5328 17.3482 24 16.881 24 16.3047C24 15.7284 23.5328 15.2612 22.9565 15.2612Z" fill="#F8FCFF"/>
</svg>
